Patient4_TMGait_0pt6_01_right_30_EMG.mot
version=1
nRows=17
nColumns=33
inDegrees=no
endheader
time	1LAddLong	2LGlutMax	3LGlutMed	4LIliopsoas	5LSemiMemb	6LBicFemLong	7LRecFem	8LVastMed	9LVastLat	10LGasMed	11LTibAnt	12lTibPost	13LPeroneusLong	14LSol	15LExtDigLong	16LFlexDigLong	17RAddLong	18RGlutMax	19RGlutMed	20RIliopsoas	21RSemiMemb	22RBicFemLong	23RRecFem	24RVastMed	25RVastLat	26RGasMed	27RTibAnt	28RTibPost	29RPeroneusLong	30RSol	31RExtDigLong	32RFlexDigLong
36.322	0.000153	-0.327	0.27771	0.0177	0.004425	-0.033875	0.08667	0.007629	0.12009	-0.004578	0.10422	0.020447	-0.1004	-0.070953	0.066681	0.032806	-0.015106	-1.046	-0.36041	0.074768	0.17929	-0.07782	0.10101	-0.13046	-0.050354	-0.003204	0.37598	0.005035	0.26337	0.52948	-0.003204	0.007324
36.323	0.007172	-0.31632	0.27115	-0.001221	0.000458	-0.017242	0.054626	0.012207	0.12543	-0.003967	0.018005	0.024872	-0.1297	0.02594	0.17487	0.031433	-0.001221	-0.93842	-0.050354	-0.092163	0.10712	-0.14297	0.17929	-0.11719	-0.14313	-0.015869	0.33539	0.13199	-0.044403	0.18204	-0.001831	0.008698
36.324	-0.004578	-0.34561	0.29175	-0.011139	0.000916	-0.022888	0.14252	0.013885	0.13168	0.005646	-0.06546	0.014496	-0.16541	0.076904	-0.20508	0.040283	-0.0177	-0.90591	0.36774	-0.2092	0.006104	-0.09201	0.11551	-0.073242	-0.18906	-0.012817	0.04715	0.021515	-0.25909	-0.3891	-0.002899	0.007629
36.325	0.00061	-0.31189	0.30014	-0.033417	0.003357	-0.026093	0.08606	0.007782	0.11581	-0.033264	-0.18494	0.015869	-0.12772	0.081024	-0.12604	0.044098	-0.013428	-1.0152	-0.27374	-0.11719	-0.066223	-0.16876	0.038605	0.060272	-0.16281	-0.023804	0.082397	-0.027313	0.066986	-0.8432	-0.004883	0.009308
36.326	-0.000458	-0.29709	0.30655	-0.030975	-0.002441	-0.018616	-0.003204	0.015564	0.13107	-0.051117	0.06958	0.01236	-0.08255	0.14328	0.074005	0.038757	0.003204	-1.0977	-1.0318	-0.03418	-0.095062	-0.25253	0.071564	-0.066376	-0.20096	-0.083771	-0.14969	-0.052795	0.383	-1.0463	-0.003052	0.01358
36.327	0.001068	-0.3186	0.31052	-0.022583	-0.000916	-0.012817	-0.083466	0.008392	0.13412	-0.016479	0.067139	0.0177	-0.11353	0.14832	0.45929	0.037384	-0.009308	-1.131	-0.75897	0.078125	-0.14648	-0.24948	0.1828	-0.03952	-0.20081	-0.17151	-0.54382	-0.11398	0.56549	-0.13336	0.001831	0.007019
36.328	-0.003357	-0.29465	0.30395	0.015869	-0.00946	-0.010376	-0.008698	0.018921	0.13855	-0.044861	0.055847	0.007324	-0.074921	0.17502	0.68771	0.03067	-0.029602	-1.1494	-0.20615	0.12238	-0.22079	-0.17471	0.20248	-0.025482	-0.15991	-0.17242	-0.4393	-0.20279	0.52261	0.3067	-0.003815	0.004272
36.329	-0.008392	-0.25696	0.31128	0.055084	0.001068	-0.024109	-0.017853	0.015259	0.1268	-0.017395	0.48752	0.012665	-0.076294	0.2005	-0.15411	0.039215	-0.020294	-1.0713	-0.05127	0.12131	-0.003662	-0.24582	0.24628	-0.1033	-0.16419	-0.11139	-0.16113	-0.2182	-0.12543	-0.2948	-0.001526	0.000305
36.33	-0.007477	-0.28793	0.30334	0.061493	-0.003357	-0.004425	0.063171	0.016174	0.14145	-0.06012	0.37842	0.003815	-0.045166	0.18997	0.10346	0.04715	-0.022125	-0.99472	-0.18478	0.18173	0.090637	-0.33615	0.19394	-0.29312	-0.15045	0.061035	0.22858	0.037079	-0.38177	-0.99167	-0.002747	-0.008698
36.331	-0.000305	-0.26352	0.30731	0.012665	-0.004883	-0.019073	0.13184	0.010529	0.12878	-0.06485	0.3122	0.006561	-0.13153	0.19974	0.019226	0.040741	0	-1.0594	-0.37308	0.22415	0.045166	-0.38498	0.21637	-0.34759	-0.15152	0.10696	0.3923	0.34378	-0.63889	-1.0464	-0.007019	-0.018463
36.332	0.002289	-0.24078	0.28473	0.007629	0.001526	-0.010223	0.063019	0.019989	0.13428	-0.03479	0.089722	0.005035	-0.15198	0.15732	-0.25909	0.026093	-0.012207	-1.0529	0.14679	0.15488	-0.041199	-0.43823	0.27679	-0.3479	-0.24597	0.071106	0.28076	-0.027313	-0.64484	-1.3063	0.001373	-0.030212
36.333	0.011444	-0.21332	0.25391	0.005188	0.001831	-0.031128	-0.027618	0.026703	0.12558	-0.038147	-0.10925	0.005646	-0.057678	0.13565	-0.62622	0.018158	0.000763	-0.93567	0.30518	0.026398	-0.10086	-0.56335	0.3923	-0.28549	-0.32196	0.065918	0.031433	-0.43198	-0.61386	-1.1197	0.00061	-0.028534
36.334	0.018158	-0.18723	0.2417	0.005493	-0.008087	-0.024261	-0.035553	0.038605	0.14648	-0.002747	-0.058594	-0.00473	-0.088806	0.049591	-0.71625	0.032043	0.019989	-0.87494	-0.34729	0.006866	-0.19043	-0.65353	0.52673	-0.17212	-0.31845	0.019989	-0.14908	-0.018311	-0.33569	-0.60135	-0.002747	-0.024109
36.335	0.022736	-0.14999	0.26001	-0.010071	-0.002899	-0.012512	-0.12894	0.040894	0.14435	0.048523	0.064087	0	-0.24109	-0.062866	-0.47134	0.03067	0.045013	-1.0115	-0.4039	-0.049133	0.040741	-0.73654	0.57068	0.059662	-0.31982	0.055084	-0.28534	0.074158	-0.072784	0.54855	-0.002899	-0.004578
36.336	0.023499	-0.18341	0.22034	0.0177	0.001068	-0.028534	-0.28915	0.027618	0.12039	0.026398	0.17075	-0.005951	-0.23926	-0.036011	-0.10025	0.039368	0.045471	-1.008	0.38208	-0.018158	0.13992	-0.72723	0.46081	0.11551	-0.24078	0.03952	-0.35538	0.16052	0.62775	0.85037	0	0.000153
36.337	0.021057	-0.21286	0.2002	0.031738	-0.002899	-0.021057	-0.37521	0.031281	0.11505	-0.006561	0.11627	0.001984	-0.13153	0.030518	0.9787	0.040283	0.036011	-1.0971	0.28732	-0.01297	-0.10391	-0.48675	0.47241	0.31845	-0.064545	0.006256	-0.071564	0.058594	0.65567	1.2541	-0.000916	-0.006866
36.338	0.014496	-0.25574	0.12756	-0.002441	-0.000305	-0.03418	-0.32822	0.035858	0.11551	-0.02533	-0.13321	0.00473	-0.021362	0.12817	0.62073	0.047455	-0.007324	-1.2492	-0.28519	-0.006104	-0.32394	-0.34042	0.19547	0.22736	0.016327	0.002441	0.30884	0.031738	0.12131	0.93124	-0.00473	-0.010071
